<?xml version="1.0" encoding="UTF-8"?>
<svg id="_レイヤー_2" data-name="レイヤー 2" xmlns="http://www.w3.org/2000/svg" viewBox="0 0 93.18 56">
  <defs>
    <style>
      .cls-1 {
        fill: #05549a;
      }

      .cls-2 {
        fill: #f6e752;
      }
    </style>
  </defs>
  <g id="_レイヤー_2-2" data-name=" レイヤー 2">
    <g>
      <ellipse class="cls-2" cx="46.42" cy="28.22" rx="33.57" ry="24.43"/>
      <path class="cls-1" d="M20.29,19.29c.14-.85.65-.99,1.81-1.25s7.14-.65,9.33-.09c2.19.56,2.24,1.16.9,2.02-1.05.62-1.48.7-1.96,3.14l-3.46,13.85c.62.54,2.14,1.52,3.57,1.09,1.05-.31,1-1.12.39-1.95-.69-.93-2.19-2.57-1.51-5.36s2.91-3.46,4.85-3.41,3.31,1.59,3.53,3.27-.03,5.08-3.73,7.96c-3.26,2.54-9.1.83-10.32.6s-2.9-.67-3.93.19-2.06,2.61-2.06,2.61l-.93-.47-.16-1.36,4.67-18.72c.11-.34-1.2-.77-.99-2.11h0Z"/>
      <path class="cls-1" d="M40.03,18.9c-.09-.69.65-.84,1.25-1.12,1.29-.6,6.24-.52,7.74-1.76.73-.6,2.09-2.06,2.92-1.76,1.08.39.61,1.86.43,3.96-.26,2.92-3.61,13.2-3.91,14.67-.16.77-.25,1.5.26,1.63.82.22,1.81-1.03,2.41-2.19.53-1.03.61-1.73,1.08-1.81.56-.09,1.33.77,1.33,1.85,0,.82-4.82,7.36-10.06,7.05-4.43-.25-4.89-4.92-4.73-6.62.22-2.37,2.76-8.36,2.92-9.12.34-1.59.6-2.8.3-3.18s-1.81-.65-1.94-1.59h0Z"/>
      <path class="cls-1" d="M62.09,31.33c1.88,1.53,1.72,5.89,1.72,5.89,0,0,2.28-.43,2.62-1.94s-1.38-3.01-2.58-4.09-6.62-3.57-6.97-7.05,1.55-6.54,5.2-7.57c3.65-1.03,8.8.36,9.89.26,1.38-.13,2.75-.3,4-1.63s.65,1.46.65,1.46c0,0-1.63,7.01-2.24,8-.43.71-.65,1.55-1.42,1.51s-1.63-3.01-2.84-4.56c-.99-1.27-3.79-2.92-4.82-2.06s.47,2.02,1.03,2.58,6.49,5.12,7.53,7.79c.66,1.71-.4,5.54-2.75,7.14-3.23,2.19-6.58,2.62-10.75,2.62s-8.7-2.2-7.53-6.28c.9-3.14,6.75-4.09,9.25-2.06h0Z"/>
      <path class="cls-1" d="M46.59,0C20.86,0,0,12.54,0,28s20.86,28,46.59,28,46.59-12.54,46.59-28S72.32,0,46.59,0ZM46.42,52.65c-18.54,0-33.57-10.94-33.57-24.43S27.88,3.79,46.42,3.79s33.57,10.94,33.57,24.43-15.03,24.43-33.57,24.43Z"/>
    </g>
  </g>
</svg>