<?xml version="1.0" encoding="UTF-8"?>
<svg id="_レイヤー_2" data-name="レイヤー 2" xmlns="http://www.w3.org/2000/svg" viewBox="0 0 302.25 56">
  <defs>
    <style>
      .cls-1 {
        fill: #05549a;
      }

      .cls-2 {
        fill: #f6e752;
      }
    </style>
  </defs>
  <g id="_レイヤー_2-2" data-name=" レイヤー 2">
    <g>
      <ellipse class="cls-2" cx="46.42" cy="28.22" rx="33.57" ry="24.43"/>
      <path class="cls-1" d="M20.29,19.29c.14-.85.65-.99,1.81-1.25s7.14-.65,9.33-.09c2.19.56,2.24,1.16.9,2.02-1.05.62-1.48.7-1.96,3.14l-3.46,13.85c.62.54,2.14,1.52,3.57,1.09,1.05-.31,1-1.12.39-1.95-.69-.93-2.19-2.57-1.51-5.36s2.91-3.46,4.85-3.41,3.31,1.59,3.53,3.27-.03,5.08-3.73,7.96c-3.26,2.54-9.1.83-10.32.6s-2.9-.67-3.93.19-2.06,2.61-2.06,2.61l-.93-.47-.16-1.36,4.67-18.72c.11-.34-1.2-.77-.99-2.11h0Z"/>
      <path class="cls-1" d="M40.03,18.9c-.09-.69.65-.84,1.25-1.12,1.29-.6,6.24-.52,7.74-1.76.73-.6,2.09-2.06,2.92-1.76,1.08.39.61,1.86.43,3.96-.26,2.92-3.61,13.2-3.91,14.67-.16.77-.25,1.5.26,1.63.82.22,1.81-1.03,2.41-2.19.53-1.03.61-1.73,1.08-1.81.56-.09,1.33.77,1.33,1.85,0,.82-4.82,7.36-10.06,7.05-4.43-.25-4.89-4.92-4.73-6.62.22-2.37,2.76-8.36,2.92-9.12.34-1.59.6-2.8.3-3.18s-1.81-.65-1.94-1.59h0Z"/>
      <path class="cls-1" d="M62.09,31.33c1.88,1.53,1.72,5.89,1.72,5.89,0,0,2.28-.43,2.62-1.94s-1.38-3.01-2.58-4.09-6.62-3.57-6.97-7.05,1.55-6.54,5.2-7.57c3.65-1.03,8.8.36,9.89.26,1.38-.13,2.75-.3,4-1.63s.65,1.46.65,1.46c0,0-1.63,7.01-2.24,8-.43.71-.65,1.55-1.42,1.51s-1.63-3.01-2.84-4.56c-.99-1.27-3.79-2.92-4.82-2.06s.47,2.02,1.03,2.58,6.49,5.12,7.53,7.79c.66,1.71-.4,5.54-2.75,7.14-3.23,2.19-6.58,2.62-10.75,2.62s-8.7-2.2-7.53-6.28c.9-3.14,6.75-4.09,9.25-2.06h0Z"/>
      <path class="cls-1" d="M46.59,0C20.86,0,0,12.54,0,28s20.86,28,46.59,28,46.59-12.54,46.59-28S72.32,0,46.59,0ZM46.42,52.65c-18.54,0-33.57-10.94-33.57-24.43S27.88,3.79,46.42,3.79s33.57,10.94,33.57,24.43-15.03,24.43-33.57,24.43Z"/>
    </g>
    <path class="cls-1" d="M201.91,35.73l-4.57-8.21h3.55c.48,0,.86-.39.86-.86v-.65c0-.48-.39-.86-.86-.86h-5.23v-5.94c0-.52.43-.95.95-.95h3.94c.38,0,.69-.31.69-.69v-.33c0-.38-.31-.69-.69-.69h-3.94c-.52,0-.95-.43-.95-.95v-3.55h-5.37v3.16c0,.38-.31.69-.69.69h-.88c-.38,0-.69-.31-.69-.69v-2.47c0-.38-.31-.69-.69-.69h-3.45c-.38,0-.69.31-.69.69v4.67c0,.38.31.69.69.69h6.4v7.05h-4.89l-4.2-4.07v-8.34c0-.38-.31-.69-.69-.69h-4.26c-.38,0-.69.31-.69.69v3.73h-4.27v2.43h3.98c-1.26,3.3-3.86,10.09-3.98,10.17v9.79l4.27-8.04v12.42h5.65v-15.6l3,1.95,1.33-2.07h2.9l-5.15,8.42v6.3l7.02-6.12v7.12h6.04v-6.58l4.65,6.66.93-7.59h-.02Z"/>
    <path class="cls-1" d="M235.05,42.2c-.54-.31-1.55.03-2.34-.96-.62-.79-.72-1.65-.72-1.65l-3.62-21.33h6.16c.38,0,.69-.31.69-.69v-4.41c0-.38-.31-.69-.69-.69h-3.05c-.52,0-.73.62-.73,1.35l-.82,2.73h-1.86l-.67-3.94h-6.06s.23,1.54.64,3.94h-16.56c-.38,0-.69.31-.69.69v.33c0,.38.31.69.69.69h16.85c.34,2.02.76,4.4,1.18,6.84h-18.6v2.32h6.61v9.06c-3.6,1.45-6.5,2.69-6.71,2.97-.51.69-.05,3.77-.05,3.77,0,0,16.27-6.3,17.76-6.82,1.5-.52,1.55-.88,1.81-1.19.11-.14.41-.75.7-1.39.68,3.93,1.19,6.82,1.19,6.82.11.86,1.33,2.75,2.62,2.75,0,0,4.3.03,5.4.03s1.51-.86.86-1.24v.02ZM217.82,33.96v-6.54h6.04c.23,1.34.46,2.67.68,3.94-1.48.57-3.98,1.53-6.73,2.6h.01Z"/>
    <path class="cls-1" d="M268.68,41.77l-5.27-6.2h-5.6c-.36,0-.3.38-.21.52l3.53,5.52h-16.11l11.98-13.32h11.82v-2.96h-.03l-.02-2s.14-1.86-1.1-2.62c-1.53-.94-11.84-8.88-14.53-8.88s-15.9,10.4-15.9,10.4v3.99c0,1.15.93,2.07,2.07,2.07h8.89l-10.83,13.17c-.24.33-.36,1.91,1.19,1.91h28.97c1.64,0,1.39-1.35,1.14-1.6h0ZM253.23,16.52l5.95,4.27h-11.95l6-4.27ZM243.94,23.13h18.5l3.07,2.2h-24.66l3.09-2.2Z"/>
    <path class="cls-1" d="M111.74,25.57v-10.72l1.41-1.7c.21-.26.12-.76-.45-.76h-8.47c-.57,0-.65.5-.45.76l1.41,1.7v10.72l-1.41,1.7c-.21.26-.12.76.45.76h8.47c.57,0,.65-.5.45-.76l-1.41-1.7Z"/>
    <path class="cls-1" d="M134.84,12.49h-8.68l-.1,9.97c0,16.52-13.17,18.64-17.92,18.64h0s-.31-2.12-1.5-2.12c-1.5,0-.88,4.49-.88,4.49l2.18-.04h.46c3.67-.15,11.21-.83,16.58-4.39,5.05-3.35,5.98-6.09,7.07-9.45,1.5-4.6,1.45-14.92,1.45-14.92l1.55-.77c.52-.31,1.14-1.34-.21-1.39v-.02Z"/>
    <path class="cls-1" d="M167.99,34.56c-.05-.2-.28-.28-.5-.16s-.76.37-.9.34c-.11-.02-2.8-2.92-4-4.21,1.34-2.74,1.92-5.34,2.3-6.71.62-2.2,1.45-8.26,1.79-8.81s.69-.64.69-.64c.33-.14.4-.88-.28-.88h-28.26c-.48,0-.86.39-.86.86v.27c0,.48.39.86.86.86h19.2c.48,0,.87.35.94.81v6c0,2.13-.69,5.65-4.2,11.09-3.51,5.44-12.22,8.15-13.44,7.77-1.25-.39-1.26-1.54-1.78-1.99-.24-.21-1.02-.63-1.56.48-.29.6,0,3.82,0,3.82,0,0,.73.13,3.71.1,5.44-.05,13.63-4.13,17.56-8.19.07-.07.13-.14.2-.21,1.76,1.69,8.12,7.77,8.32,7.67.23-.11.3-8.04.23-8.29v.02Z"/>
    <path class="cls-1" d="M301.21,26.51h-4.07c-.72,0-1.3-.58-1.3-1.3v-12.41c0-.41-.33-.74-.74-.74h-4.16c-.41,0-.74.33-.74.74v12.41c0,.72-.58,1.3-1.3,1.3h-3.65c-.44,0-.82.28-.97.67l-2.43-1.86c1.05-1.03,4.47-4.41,4.96-4.92.64-.66.66-2.2-.05-2.58-.85-.46-1.24-.31-1.24-.31h-3.41v-4.71c0-.41-.33-.74-.74-.74h-4.16c-.41,0-.74.33-.74.74v4.71h-6.08v1.91h9.98l-10.44,11.72v5.73l6.09-5.88v12.62s.07.44.46.42l4.2-.22c.37-.03.8-.36.8-1.03v-10.13l4.02,3.63.5-.25v-6.61c0-.22.02-.46-.06-.71h2.95c.72,0,1.3.58,1.3,1.3v10.69c0,.72-.58,1.3-1.3,1.3h-4.65c-.48,0-.86.39-.86.86v.06c0,.48.39.86.86.86h16.45c.48,0,.86-.39.86-.86v-.06c0-.48-.39-.86-.86-.86h-3.55c-.72,0-1.3-.58-1.3-1.3v-10.69c0-.72.58-1.3,1.3-1.3h4.07c.57,0,1.04-.46,1.04-1.04v-.13c0-.57-.46-1.04-1.04-1.04h0Z"/>
  </g>
</svg>